<svg xmlns="http://www.w3.org/2000/svg" width="128" height="128" viewBox="0 0 128 128">
  <rect width="128" height="128" rx="19" fill="#111111"/>
  <rect x="13" y="13" width="26" height="26" rx="3" fill="#e5e7eb"/>
  <rect x="39" y="13" width="26" height="26" rx="3" fill="#4b5563"/>
  <rect x="65" y="13" width="26" height="26" rx="3" fill="#e5e7eb"/>
  <rect x="91" y="13" width="26" height="26" rx="3" fill="#4b5563"/>
  <rect x="13" y="39" width="26" height="26" rx="3" fill="#4b5563"/>
  <rect x="39" y="39" width="26" height="26" rx="3" fill="#e5e7eb"/>
  <rect x="65" y="39" width="26" height="26" rx="3" fill="#4b5563"/>
  <rect x="91" y="39" width="26" height="26" rx="3" fill="#e5e7eb"/>
  <rect x="13" y="65" width="26" height="26" rx="3" fill="#e5e7eb"/>
  <rect x="39" y="65" width="26" height="26" rx="3" fill="#4b5563"/>
  <rect x="65" y="65" width="26" height="26" rx="3" fill="#e5e7eb"/>
  <rect x="91" y="65" width="26" height="26" rx="3" fill="#4b5563"/>
  <rect x="13" y="91" width="26" height="26" rx="3" fill="#4b5563"/>
  <rect x="39" y="91" width="26" height="26" rx="3" fill="#e5e7eb"/>
  <rect x="65" y="91" width="26" height="26" rx="3" fill="#4b5563"/>
  <rect x="91" y="91" width="26" height="26" rx="3" fill="#e5e7eb"/>
</svg>