<svg xmlns="http://www.w3.org/2000/svg" width="96" height="96" viewBox="0 0 96 96">
  <rect width="96" height="96" rx="14" fill="#111111"/>
  <rect x="10" y="10" width="19" height="19" rx="2" fill="#e5e7eb"/>
  <rect x="29" y="10" width="19" height="19" rx="2" fill="#4b5563"/>
  <rect x="48" y="10" width="19" height="19" rx="2" fill="#e5e7eb"/>
  <rect x="67" y="10" width="19" height="19" rx="2" fill="#4b5563"/>
  <rect x="10" y="29" width="19" height="19" rx="2" fill="#4b5563"/>
  <rect x="29" y="29" width="19" height="19" rx="2" fill="#e5e7eb"/>
  <rect x="48" y="29" width="19" height="19" rx="2" fill="#4b5563"/>
  <rect x="67" y="29" width="19" height="19" rx="2" fill="#e5e7eb"/>
  <rect x="10" y="48" width="19" height="19" rx="2" fill="#e5e7eb"/>
  <rect x="29" y="48" width="19" height="19" rx="2" fill="#4b5563"/>
  <rect x="48" y="48" width="19" height="19" rx="2" fill="#e5e7eb"/>
  <rect x="67" y="48" width="19" height="19" rx="2" fill="#4b5563"/>
  <rect x="10" y="67" width="19" height="19" rx="2" fill="#4b5563"/>
  <rect x="29" y="67" width="19" height="19" rx="2" fill="#e5e7eb"/>
  <rect x="48" y="67" width="19" height="19" rx="2" fill="#4b5563"/>
  <rect x="67" y="67" width="19" height="19" rx="2" fill="#e5e7eb"/>
</svg>