<svg xmlns="http://www.w3.org/2000/svg" width="152" height="152" viewBox="0 0 152 152">
  <rect width="152" height="152" rx="23" fill="#111111"/>
  <rect x="15" y="15" width="31" height="31" rx="4" fill="#e5e7eb"/>
  <rect x="46" y="15" width="31" height="31" rx="4" fill="#4b5563"/>
  <rect x="77" y="15" width="31" height="31" rx="4" fill="#e5e7eb"/>
  <rect x="108" y="15" width="31" height="31" rx="4" fill="#4b5563"/>
  <rect x="15" y="46" width="31" height="31" rx="4" fill="#4b5563"/>
  <rect x="46" y="46" width="31" height="31" rx="4" fill="#e5e7eb"/>
  <rect x="77" y="46" width="31" height="31" rx="4" fill="#4b5563"/>
  <rect x="108" y="46" width="31" height="31" rx="4" fill="#e5e7eb"/>
  <rect x="15" y="77" width="31" height="31" rx="4" fill="#e5e7eb"/>
  <rect x="46" y="77" width="31" height="31" rx="4" fill="#4b5563"/>
  <rect x="77" y="77" width="31" height="31" rx="4" fill="#e5e7eb"/>
  <rect x="108" y="77" width="31" height="31" rx="4" fill="#4b5563"/>
  <rect x="15" y="108" width="31" height="31" rx="4" fill="#4b5563"/>
  <rect x="46" y="108" width="31" height="31" rx="4" fill="#e5e7eb"/>
  <rect x="77" y="108" width="31" height="31" rx="4" fill="#4b5563"/>
  <rect x="108" y="108" width="31" height="31" rx="4" fill="#e5e7eb"/>
</svg>