<svg xmlns="http://www.w3.org/2000/svg" width="72" height="72" viewBox="0 0 72 72">
  <rect width="72" height="72" rx="11" fill="#111111"/>
  <rect x="7" y="7" width="15" height="15" rx="2" fill="#e5e7eb"/>
  <rect x="22" y="7" width="15" height="15" rx="2" fill="#4b5563"/>
  <rect x="37" y="7" width="15" height="15" rx="2" fill="#e5e7eb"/>
  <rect x="52" y="7" width="15" height="15" rx="2" fill="#4b5563"/>
  <rect x="7" y="22" width="15" height="15" rx="2" fill="#4b5563"/>
  <rect x="22" y="22" width="15" height="15" rx="2" fill="#e5e7eb"/>
  <rect x="37" y="22" width="15" height="15" rx="2" fill="#4b5563"/>
  <rect x="52" y="22" width="15" height="15" rx="2" fill="#e5e7eb"/>
  <rect x="7" y="37" width="15" height="15" rx="2" fill="#e5e7eb"/>
  <rect x="22" y="37" width="15" height="15" rx="2" fill="#4b5563"/>
  <rect x="37" y="37" width="15" height="15" rx="2" fill="#e5e7eb"/>
  <rect x="52" y="37" width="15" height="15" rx="2" fill="#4b5563"/>
  <rect x="7" y="52" width="15" height="15" rx="2" fill="#4b5563"/>
  <rect x="22" y="52" width="15" height="15" rx="2" fill="#e5e7eb"/>
  <rect x="37" y="52" width="15" height="15" rx="2" fill="#4b5563"/>
  <rect x="52" y="52" width="15" height="15" rx="2" fill="#e5e7eb"/>
</svg>